<svg xmlns="http://www.w3.org/2000/svg" width="1920" height="1080" viewBox="0 0 1920 1080"><defs><linearGradient id="bg" x2="1" y2="1"><stop stop-color="#020617"/><stop offset=".6" stop-color="#111827"/><stop offset="1" stop-color="#450a0a"/></linearGradient></defs><rect width="1920" height="1080" fill="url(#bg)"/><path d="M0 180h1920M0 420h1920M0 660h1920M0 900h1920M240 0v1080M520 0v1080M800 0v1080M1080 0v1080M1360 0v1080M1640 0v1080" stroke="#94a3b8" stroke-opacity=".08" stroke-width="3"/><text x="960" y="75" fill="#fbbf24" font-family="Arial, Helvetica, sans-serif" font-size="24px" font-weight="800" text-anchor="middle" letter-spacing="5px">MATCH-DAY COMMAND CENTER</text><text x="960" y="137" fill="#fff" font-family="Arial, Helvetica, sans-serif" font-size="50px" font-weight="900" text-anchor="middle" letter-spacing="0px">Run the match. Not the paperwork.</text><rect x="250" y="185" width="1420" height="820" rx="52" fill="#020617" stroke="#fbbf24" stroke-opacity=".55" stroke-width="5"/><rect x="275" y="210" width="1370" height="770" rx="34" fill="#0f172a"/><rect x="275" y="210" width="1370" height="60" rx="30" fill="#160b0b"/><circle cx="960" cy="240" r="7" fill="#fbbf24"/><g transform="translate(330 310) scale(0.52)"><path d="M120 10 220 55v70c0 62-39 111-100 141-61-30-100-79-100-141V55Z" fill="#160b0b" stroke="#fbbf24" stroke-width="8"/><path d="M120 28 199 63v61c0 48-28 84-79 111-51-27-79-63-79-111V63Z" fill="none" stroke="#ef4444" stroke-width="5"/><path d="M120 57 149 104h-16v43h-26v-43H91Z" fill="#fff7ed"/><path d="M92 147h56" stroke="#fff7ed" stroke-width="9" stroke-linecap="round"/><circle cx="120" cy="130" r="33" fill="none" stroke="#fbbf24" stroke-width="4"/></g><text x="960" y="368" fill="#fff7ed" font-family="Arial, Helvetica, sans-serif" font-size="30px" font-weight="900" text-anchor="middle" letter-spacing="5px">GAFFER</text><text x="960" y="398" fill="#fbbf24" font-family="Arial, Helvetica, sans-serif" font-size="12px" font-weight="700" text-anchor="middle" letter-spacing="2px">TACTICAL MATCH-DAY MANAGER</text><rect x="350" y="475" width="1220" height="66" rx="16" fill="#16a34a"/><text x="960" y="517" fill="#fff" font-family="Arial, Helvetica, sans-serif" font-size="20px" font-weight="900" text-anchor="middle" letter-spacing="1px">+  START A NEW SEASON</text><text x="380" y="612" fill="#86efac" font-family="Arial, Helvetica, sans-serif" font-size="15px" font-weight="800" text-anchor="start" letter-spacing="2px">ACTIVE SEASONS</text><rect x="350" y="635" width="1220" height="118" rx="18" fill="#14532d" stroke="#166534" stroke-width="3"/><text x="395" y="688" fill="#fff" font-family="Arial, Helvetica, sans-serif" font-size="27px" font-weight="900" text-anchor="start" letter-spacing="0px">Fall 2026 Rec</text><text x="395" y="723" fill="#86efac" font-family="Arial, Helvetica, sans-serif" font-size="16px" font-weight="600" text-anchor="start" letter-spacing="0px">Hedgehogs  •  Active season</text><text x="1500" y="704" fill="#86efac" font-family="Arial, Helvetica, sans-serif" font-size="42px" font-weight="900" text-anchor="middle" letter-spacing="0px">›</text><text x="380" y="825" fill="#fbbf24" font-family="Arial, Helvetica, sans-serif" font-size="16px" font-weight="800" text-anchor="start" letter-spacing="1px">No accounts  •  No servers  •  No data collection</text><text x="380" y="875" fill="#cbd5e1" font-family="Arial, Helvetica, sans-serif" font-size="18px" font-weight="600" text-anchor="start" letter-spacing="0px">Your seasons, rosters, and match records stay organized on your device.</text><text x="960" y="952" fill="#94a3b8" font-family="Arial, Helvetica, sans-serif" font-size="13px" font-weight="800" text-anchor="middle" letter-spacing="3px">GAFFER  •  100% OFFLINE</text></svg>